<?xml version="1.0" encoding="UTF-8" standalone="no"?>
<svg
   xmlns:dc="http://purl.org/dc/elements/1.1/"
   xmlns:cc="http://creativecommons.org/ns#"
   xmlns:rdf="http://www.w3.org/1999/02/22-rdf-syntax-ns#"
   xmlns:svg="http://www.w3.org/2000/svg"
   xmlns="http://www.w3.org/2000/svg"
   xmlns:sodipodi="http://sodipodi.sourceforge.net/DTD/sodipodi-0.dtd"
   xmlns:inkscape="http://www.inkscape.org/namespaces/inkscape"
   viewBox="0.0 0.0 348.0 348.0"
   fill="none"
   version="1.1"
   id="svg6"
   sodipodi:docname="Module Name.svg"
   inkscape:version="0.92.4 (5da689c313, 2019-01-14)">
  <metadata
     id="metadata12">
    <rdf:RDF>
      <cc:Work
         rdf:about="">
        <dc:format>image/svg+xml</dc:format>
        <dc:type
           rdf:resource="http://purl.org/dc/dcmitype/StillImage" />
      </cc:Work>
    </rdf:RDF>
  </metadata>
  <defs
     id="defs10" />
  <sodipodi:namedview
     pagecolor="#ffffff"
     bordercolor="#666666"
     borderopacity="1"
     objecttolerance="10"
     gridtolerance="10"
     guidetolerance="10"
     inkscape:pageopacity="0"
     inkscape:pageshadow="2"
     inkscape:window-width="1920"
     inkscape:window-height="1017"
     id="namedview8"
     showgrid="false"
     inkscape:zoom="1.9181287"
     inkscape:cx="198.86039"
     inkscape:cy="158.47836"
     inkscape:window-x="1912"
     inkscape:window-y="-8"
     inkscape:window-maximized="1"
     inkscape:current-layer="svg6" />
  <path
     d="M5.079 5.776h336.913v337.67H5.08z"
     id="path2"
     stroke-width="2"
     stroke="#000" />
  <path
     d="M282.734 40.554c0-8.376 6.966-15.165 15.56-15.165 4.126 0 8.084 1.597 11.001 4.441 2.918 2.844 4.558 6.702 4.558 10.724 0 8.376-6.966 15.165-15.56 15.165-8.593 0-15.559-6.79-15.559-15.165z"
     stroke-width="2"
     stroke="#000"
     id="path4" />
  <path
     style="fill:none;stroke:#000000;stroke-width:1px;stroke-linecap:butt;stroke-linejoin:miter;stroke-opacity:1"
     d="m 224.77704,323.31076 107.91768,-0.52134"
     id="path3717"
     inkscape:connector-curvature="0" />
  <path
     style="fill:none;stroke:#000000;stroke-width:1.36522496px;stroke-linecap:butt;stroke-linejoin:miter;stroke-opacity:1"
     d="m 286.99867,108.44173 0.16336,201.66499"
     id="path3717-9"
     inkscape:connector-curvature="0" />
  <path
     style="fill:none;stroke:#000000;stroke-width:0.76558071px;stroke-linecap:butt;stroke-linejoin:miter;stroke-opacity:1"
     d="m 224.61195,310.63392 62.55008,-0.5272"
     id="path3717-2"
     inkscape:connector-curvature="0" />
  <path
     style="fill:none;stroke:#000000;stroke-width:0.78361946px;stroke-linecap:butt;stroke-linejoin:miter;stroke-opacity:1"
     d="m 220.73059,108.96495 66.26787,-0.52134"
     id="path3717-5"
     inkscape:connector-curvature="0" />
  <path
     style="fill:none;stroke:#000000;stroke-width:0.93649346px;stroke-linecap:butt;stroke-linejoin:miter;stroke-opacity:1"
     d="m 208.83213,92.829109 94.35909,-0.522926"
     id="path3717-3"
     inkscape:connector-curvature="0" />
  <path
     style="fill:none;stroke:#000000;stroke-width:1.42229509px;stroke-linecap:butt;stroke-linejoin:miter;stroke-opacity:1"
     d="m 303.19308,92.306976 0.16376,218.344384"
     id="path3717-9-7"
     inkscape:connector-curvature="0" />
  <path
     style="fill:none;stroke:#000000;stroke-width:0.34541389px;stroke-linecap:butt;stroke-linejoin:miter;stroke-opacity:1"
     d="m 224.61064,310.6369 0.1664,12.67386"
     id="path3717-9-78"
     inkscape:connector-curvature="0" />
  <path
     style="fill:none;stroke:#000000;stroke-width:0.34541389px;stroke-linecap:butt;stroke-linejoin:miter;stroke-opacity:1"
     d="m 332.52832,310.11556 0.1664,12.67386"
     id="path3717-9-78-6"
     inkscape:connector-curvature="0" />
  <path
     style="fill:none;stroke:#000000;stroke-width:0.52818px;stroke-linecap:butt;stroke-linejoin:miter;stroke-opacity:1"
     d="m 303.35685,310.65125 29.16809,-0.53812"
     id="path3717-2-6"
     inkscape:connector-curvature="0" />
  <path
     style="fill:none;stroke:#000000;stroke-width:0.59906143px;stroke-linecap:butt;stroke-linejoin:miter;stroke-opacity:1"
     d="m 208.83213,92.829109 0.17105,37.085861"
     id="path3717-9-8"
     inkscape:connector-curvature="0" />
  <path
     style="fill:none;stroke:#000000;stroke-width:0.34959233px;stroke-linecap:butt;stroke-linejoin:miter;stroke-opacity:1"
     d="m 209.00318,129.91497 12.47394,-0.55124"
     id="path3717-2-6-8"
     inkscape:connector-curvature="0" />
  <path
     style="fill:none;stroke:#000000;stroke-width:0.43698308px;stroke-linecap:butt;stroke-linejoin:miter;stroke-opacity:1"
     d="m 221.31388,108.9456 0.16104,20.96123"
     id="path3717-9-8-9"
     inkscape:connector-curvature="0" />
  <path
     style="color:#000000;font-style:normal;font-variant:normal;font-weight:normal;font-stretch:normal;font-size:medium;line-height:normal;font-family:sans-serif;font-variant-ligatures:normal;font-variant-position:normal;font-variant-caps:normal;font-variant-numeric:normal;font-variant-alternates:normal;font-feature-settings:normal;text-indent:0;text-align:start;text-decoration:none;text-decoration-line:none;text-decoration-style:solid;text-decoration-color:#000000;letter-spacing:normal;word-spacing:normal;text-transform:none;writing-mode:lr-tb;direction:ltr;text-orientation:mixed;dominant-baseline:auto;baseline-shift:baseline;text-anchor:start;white-space:normal;shape-padding:0;clip-rule:nonzero;display:inline;overflow:visible;visibility:visible;opacity:1;isolation:auto;mix-blend-mode:normal;color-interpolation:sRGB;color-interpolation-filters:linearRGB;solid-color:#000000;solid-opacity:1;vector-effect:none;fill:#020000;fill-opacity:1;fill-rule:nonzero;stroke:none;stroke-width:0.6560322;stroke-linecap:butt;stroke-linejoin:miter;stroke-miterlimit:4;stroke-dasharray:none;stroke-dashoffset:0;stroke-opacity:1;color-rendering:auto;image-rendering:auto;shape-rendering:auto;text-rendering:auto;enable-background:accumulate"
     d="m 215.74016,130.29348 c -12.07738,0 -21.87585,9.79719 -21.87585,21.87457 0,12.07739 9.79847,21.87586 21.87585,21.87586 12.07739,0 21.87458,-9.79847 21.87458,-21.87586 0,-12.07738 -9.79719,-21.87457 -21.87458,-21.87457 z m 0,0.65603 c 11.72284,0 21.21854,9.49571 21.21854,21.21854 0,11.72284 -9.4957,21.21982 -21.21854,21.21982 -11.72283,0 -21.21982,-9.49698 -21.21982,-21.21982 0,-11.72283 9.49699,-21.21854 21.21982,-21.21854 z"
     id="path3868"
     inkscape:connector-curvature="0" />
  <path
     style="color:#000000;font-style:normal;font-variant:normal;font-weight:normal;font-stretch:normal;font-size:medium;line-height:normal;font-family:sans-serif;font-variant-ligatures:normal;font-variant-position:normal;font-variant-caps:normal;font-variant-numeric:normal;font-variant-alternates:normal;font-feature-settings:normal;text-indent:0;text-align:start;text-decoration:none;text-decoration-line:none;text-decoration-style:solid;text-decoration-color:#000000;letter-spacing:normal;word-spacing:normal;text-transform:none;writing-mode:lr-tb;direction:ltr;text-orientation:mixed;dominant-baseline:auto;baseline-shift:baseline;text-anchor:start;white-space:normal;shape-padding:0;clip-rule:nonzero;display:inline;overflow:visible;visibility:visible;opacity:1;isolation:auto;mix-blend-mode:normal;color-interpolation:sRGB;color-interpolation-filters:linearRGB;solid-color:#000000;solid-opacity:1;vector-effect:none;fill:#020000;fill-opacity:1;fill-rule:nonzero;stroke:none;stroke-width:1.18699253;stroke-linecap:butt;stroke-linejoin:miter;stroke-miterlimit:4;stroke-dasharray:none;stroke-dashoffset:0;stroke-opacity:1;color-rendering:auto;image-rendering:auto;shape-rendering:auto;text-rendering:auto;enable-background:accumulate"
     d="m 214.79297,173.89258 c -4.02305,0 -7.27735,4.58514 -7.27735,10.25342 v 47.74748 c 0,5.6683 3.2543,10.25343 7.27735,10.25343 4.02305,0 7.27734,-4.58513 7.27734,-10.25343 V 184.146 c 0,-5.66828 -3.25429,-10.25342 -7.27734,-10.25342 z m 0,1.40895 c 3.48635,0 6.27734,3.93237 6.27734,8.84447 v 47.74748 c 0,4.9121 -2.79099,8.84448 -6.27734,8.84448 -3.48635,0 -6.27735,-3.93238 -6.27735,-8.84448 V 184.146 c 0,-4.9121 2.791,-8.84447 6.27735,-8.84447 z"
     id="rect3874"
     inkscape:connector-curvature="0" />
  <path
     style="color:#000000;font-style:normal;font-variant:normal;font-weight:normal;font-stretch:normal;font-size:medium;line-height:normal;font-family:sans-serif;font-variant-ligatures:normal;font-variant-position:normal;font-variant-caps:normal;font-variant-numeric:normal;font-variant-alternates:normal;font-feature-settings:normal;text-indent:0;text-align:start;text-decoration:none;text-decoration-line:none;text-decoration-style:solid;text-decoration-color:#000000;letter-spacing:normal;word-spacing:normal;text-transform:none;writing-mode:lr-tb;direction:ltr;text-orientation:mixed;dominant-baseline:auto;baseline-shift:baseline;text-anchor:start;white-space:normal;shape-padding:0;clip-rule:nonzero;display:inline;overflow:visible;visibility:visible;opacity:1;isolation:auto;mix-blend-mode:normal;color-interpolation:sRGB;color-interpolation-filters:linearRGB;solid-color:#000000;solid-opacity:1;vector-effect:none;fill:#020000;fill-opacity:1;fill-rule:nonzero;stroke:none;stroke-width:0.83245206;stroke-linecap:butt;stroke-linejoin:miter;stroke-miterlimit:4;stroke-dasharray:none;stroke-dashoffset:0;stroke-opacity:1;color-rendering:auto;image-rendering:auto;shape-rendering:auto;text-rendering:auto;enable-background:accumulate"
     d="m 171.65719,178.34802 c -1.80619,2.17316 -0.83394,6.02641 2.17419,8.61673 l 25.33933,21.81985 c 3.00814,2.59033 6.9025,2.92776 8.70869,0.75459 1.80619,-2.17317 0.83393,-6.0264 -2.17421,-8.61673 L 180.36586,179.1026 c -3.00813,-2.59032 -6.90248,-2.92776 -8.70867,-0.75458 z m 0.74772,0.64386 c 1.56523,-1.88325 4.90517,-1.59386 7.51199,0.6509 l 25.33934,21.81986 c 2.60682,2.24475 3.44067,5.54943 1.87544,7.43268 -1.56524,1.88325 -4.90518,1.59386 -7.512,-0.65089 l -25.33934,-21.81986 c -2.60682,-2.24476 -3.44066,-5.54944 -1.87543,-7.43269 z"
     id="rect3874-1"
     inkscape:connector-curvature="0" />
  <path
     style="color:#000000;font-style:normal;font-variant:normal;font-weight:normal;font-stretch:normal;font-size:medium;line-height:normal;font-family:sans-serif;font-variant-ligatures:normal;font-variant-position:normal;font-variant-caps:normal;font-variant-numeric:normal;font-variant-alternates:normal;font-feature-settings:normal;text-indent:0;text-align:start;text-decoration:none;text-decoration-line:none;text-decoration-style:solid;text-decoration-color:#000000;letter-spacing:normal;word-spacing:normal;text-transform:none;writing-mode:lr-tb;direction:ltr;text-orientation:mixed;dominant-baseline:auto;baseline-shift:baseline;text-anchor:start;white-space:normal;shape-padding:0;clip-rule:nonzero;display:inline;overflow:visible;visibility:visible;opacity:1;isolation:auto;mix-blend-mode:normal;color-interpolation:sRGB;color-interpolation-filters:linearRGB;solid-color:#000000;solid-opacity:1;vector-effect:none;fill:#020000;fill-opacity:1;fill-rule:nonzero;stroke:none;stroke-width:0.83245206;stroke-linecap:butt;stroke-linejoin:miter;stroke-miterlimit:4;stroke-dasharray:none;stroke-dashoffset:0;stroke-opacity:1;color-rendering:auto;image-rendering:auto;shape-rendering:auto;text-rendering:auto;enable-background:accumulate"
     d="m 260.86683,181.9285 c -1.67627,-2.27488 -5.65024,-2.25562 -8.88669,0.0431 l -27.26259,19.36334 c -3.23646,2.2987 -4.49848,5.99832 -2.8222,8.2732 1.67628,2.27488 5.65023,2.25561 8.88669,-0.0431 l 27.2626,-19.36334 c 3.23645,-2.2987 4.49849,-5.9983 2.82219,-8.27318 z m -0.80446,0.57138 c 1.45265,1.97139 0.37029,5.14431 -2.4344,7.13634 l -27.2626,19.36334 c -2.80468,1.99204 -6.21289,2.00856 -7.66555,0.0372 -1.45265,-1.9714 -0.37029,-5.14432 2.43439,-7.13635 l 27.2626,-19.36335 c 2.80469,-1.99203 6.21291,-2.00854 7.66556,-0.0371 z"
     id="rect3874-1-0"
     inkscape:connector-curvature="0"
     inkscape:transform-center-x="6.2560973"
     inkscape:transform-center-y="2.0853658" />
  <path
     style="color:#000000;font-style:normal;font-variant:normal;font-weight:normal;font-stretch:normal;font-size:medium;line-height:normal;font-family:sans-serif;font-variant-ligatures:normal;font-variant-position:normal;font-variant-caps:normal;font-variant-numeric:normal;font-variant-alternates:normal;font-feature-settings:normal;text-indent:0;text-align:start;text-decoration:none;text-decoration-line:none;text-decoration-style:solid;text-decoration-color:#000000;letter-spacing:normal;word-spacing:normal;text-transform:none;writing-mode:lr-tb;direction:ltr;text-orientation:mixed;dominant-baseline:auto;baseline-shift:baseline;text-anchor:start;white-space:normal;shape-padding:0;clip-rule:nonzero;display:inline;overflow:visible;visibility:visible;opacity:1;isolation:auto;mix-blend-mode:normal;color-interpolation:sRGB;color-interpolation-filters:linearRGB;solid-color:#000000;solid-opacity:1;vector-effect:none;fill:#020000;fill-opacity:1;fill-rule:nonzero;stroke:none;stroke-width:0.72661591;stroke-linecap:butt;stroke-linejoin:miter;stroke-miterlimit:4;stroke-dasharray:none;stroke-dashoffset:0;stroke-opacity:1;color-rendering:auto;image-rendering:auto;shape-rendering:auto;text-rendering:auto;enable-background:accumulate"
     d="m 217.73303,240.39012 c -1.16256,2.57237 -0.53677,7.13346 1.39941,10.19962 l 16.30966,25.82816 c 1.93619,3.06617 4.44279,3.46559 5.60535,0.89321 1.16255,-2.57238 0.53675,-7.13345 -1.39943,-10.19963 l -16.30966,-25.82816 c -1.93618,-3.06617 -4.44278,-3.46559 -5.60533,-0.8932 z m 0.48127,0.76214 c 1.00746,-2.22921 3.15721,-1.88666 4.83509,0.77047 l 16.30966,25.82817 c 1.67788,2.65711 2.21459,6.56886 1.20713,8.79806 -1.00747,2.2292 -3.15722,1.88665 -4.8351,-0.77046 l -16.30966,-25.82817 c -1.67788,-2.65712 -2.21458,-6.56887 -1.20712,-8.79807 z"
     id="rect3874-1-9"
     inkscape:connector-curvature="0" />
  <path
     style="color:#000000;font-style:normal;font-variant:normal;font-weight:normal;font-stretch:normal;font-size:medium;line-height:normal;font-family:sans-serif;font-variant-ligatures:normal;font-variant-position:normal;font-variant-caps:normal;font-variant-numeric:normal;font-variant-alternates:normal;font-feature-settings:normal;text-indent:0;text-align:start;text-decoration:none;text-decoration-line:none;text-decoration-style:solid;text-decoration-color:#000000;letter-spacing:normal;word-spacing:normal;text-transform:none;writing-mode:lr-tb;direction:ltr;text-orientation:mixed;dominant-baseline:auto;baseline-shift:baseline;text-anchor:start;white-space:normal;shape-padding:0;clip-rule:nonzero;display:inline;overflow:visible;visibility:visible;opacity:1;isolation:auto;mix-blend-mode:normal;color-interpolation:sRGB;color-interpolation-filters:linearRGB;solid-color:#000000;solid-opacity:1;vector-effect:none;fill:#020000;fill-opacity:1;fill-rule:nonzero;stroke:none;stroke-width:0.75340813;stroke-linecap:butt;stroke-linejoin:miter;stroke-miterlimit:4;stroke-dasharray:none;stroke-dashoffset:0;stroke-opacity:1;color-rendering:auto;image-rendering:auto;shape-rendering:auto;text-rendering:auto;enable-background:accumulate"
     d="m 211.05153,239.84311 c -2.58272,-0.3313 -6.37569,2.05952 -8.48194,5.34642 l -17.74219,27.68763 c -2.10624,3.28691 -1.72081,6.2137 0.86192,6.545 2.58273,0.33129 6.37568,-2.05954 8.48194,-5.34645 l 17.74219,-27.68761 c 2.10625,-3.28691 1.72081,-6.21371 -0.86192,-6.54499 z m -0.52354,0.81701 c 2.23818,0.2871 2.56875,2.79722 0.74348,5.64562 l -17.7422,27.68763 c -1.82525,2.84841 -5.07824,4.89888 -7.3164,4.61177 -2.23818,-0.2871 -2.56874,-2.79722 -0.74349,-5.64563 l 17.74219,-27.68762 c 1.82527,-2.84841 5.07825,-4.89887 7.31642,-4.61177 z"
     id="rect3874-1-9-3"
     inkscape:connector-curvature="0"
     inkscape:transform-center-x="44.585123"
     inkscape:transform-center-y="2.0745106e-06" />
  <rect
     style="fill:#000000;stroke:#020000;stroke-opacity:1"
     id="rect3951"
     width="28.152437"
     height="4.1707315"
     x="20.5"
     y="153.32927"
     ry="2.0853658" />
  <path
     style="fill:#000000;stroke:#020000;stroke-opacity:1"
     d="m 71.142369,27.375572 -35.142578,19.332031 34.3125,20.767578 0.0078,-0.421875 -18.076172,-20.345703 z"
     id="path4054"
     inkscape:connector-curvature="0" />
  <path
     inkscape:connector-curvature="0"
     style="fill:#000000;stroke:#020000;stroke-opacity:1"
     d="m 165.3382,67.901566 36.13288,-17.411 -33.14403,-22.58568 -0.0307,0.420831 16.954,21.289844 z"
     id="path4054-5"
     inkscape:transform-center-x="9.7136612"
     inkscape:transform-center-y="-5.5090493" />
  <rect
     style="fill:#000000;stroke:#020000;stroke-opacity:1"
     id="rect4118"
     width="35.972561"
     height="38.057926"
     x="100.5"
     y="29.794073"
     ry="0" />
  <rect
     style="fill:#000000;stroke:#020000;stroke-opacity:1"
     id="rect3951-5"
     width="28.152437"
     height="4.1707315"
     x="60.5"
     y="153.32927"
     ry="2.0853658" />
  <rect
     style="fill:#000000;stroke:#020000;stroke-opacity:1"
     id="rect3951-7"
     width="28.152437"
     height="4.1707315"
     x="100.5"
     y="153.32927"
     ry="2.0853658" />
  <rect
     style="fill:#000000;stroke:#020000;stroke-opacity:1"
     id="rect3951-6"
     width="28.152437"
     height="4.1707315"
     x="140.5"
     y="153.32927"
     ry="2.0853658" />
  <rect
     style="fill:#000000;stroke:#020000;stroke-opacity:1"
     id="rect3951-2"
     width="28.152437"
     height="4.1707315"
     x="20.5"
     y="193.32927"
     ry="2.0853658" />
  <rect
     style="fill:#000000;stroke:#020000;stroke-opacity:1"
     id="rect3951-5-3"
     width="28.152437"
     height="4.1707315"
     x="60.5"
     y="193.28964"
     ry="2.0853658" />
  <rect
     style="fill:#000000;stroke:#020000;stroke-opacity:1"
     id="rect3951-7-3"
     width="28.152437"
     height="4.1707315"
     x="100.5"
     y="193.28964"
     ry="2.0853658" />
  <rect
     style="fill:#000000;stroke:#020000;stroke-opacity:1"
     id="rect3951-6-2"
     width="28.152437"
     height="4.1707315"
     x="140.5"
     y="193.28964"
     ry="2.0853658" />
  <rect
     style="fill:#000000;stroke:#020000;stroke-opacity:1"
     id="rect3951-9"
     width="28.152437"
     height="4.1707315"
     x="20.5"
     y="233.32927"
     ry="2.0853658" />
  <rect
     style="fill:#000000;stroke:#020000;stroke-opacity:1"
     id="rect3951-5-31"
     width="28.152437"
     height="4.1707315"
     x="60.5"
     y="233.32927"
     ry="2.0853658" />
  <rect
     style="fill:#000000;stroke:#020000;stroke-opacity:1"
     id="rect3951-7-0"
     width="28.152437"
     height="4.1707315"
     x="100.5"
     y="233.32927"
     ry="2.0853658" />
  <rect
     style="fill:#000000;stroke:#020000;stroke-opacity:1"
     id="rect3951-6-4"
     width="28.152437"
     height="4.1707315"
     x="140.49998"
     y="233.32927"
     ry="2.0853658" />
  <rect
     style="fill:#000000;stroke:#020000;stroke-opacity:1"
     id="rect3951-2-8"
     width="28.152437"
     height="4.1707315"
     x="20.5"
     y="273.32925"
     ry="2.0853658" />
  <rect
     style="fill:#000000;stroke:#020000;stroke-opacity:1"
     id="rect3951-5-3-5"
     width="28.152437"
     height="4.1707315"
     x="60.5"
     y="273.28961"
     ry="2.0853658" />
  <rect
     style="fill:#000000;stroke:#020000;stroke-opacity:1"
     id="rect3951-7-3-8"
     width="28.152437"
     height="4.1707315"
     x="100.5"
     y="273.28961"
     ry="2.0853658" />
  <rect
     style="fill:#000000;stroke:#020000;stroke-opacity:1"
     id="rect3951-6-2-6"
     width="28.152437"
     height="4.1707315"
     x="140.49998"
     y="273.28961"
     ry="2.0853658" />
  <rect
     style="fill:#000000;stroke:#020000;stroke-opacity:1"
     id="rect3951-1"
     width="28.152437"
     height="4.1707315"
     x="20.5"
     y="313.32925"
     ry="2.0853658" />
  <rect
     style="fill:#000000;stroke:#020000;stroke-opacity:1"
     id="rect3951-5-5"
     width="28.152437"
     height="4.1707315"
     x="60.5"
     y="313.32925"
     ry="2.0853658" />
  <rect
     style="fill:#000000;stroke:#020000;stroke-opacity:1"
     id="rect3951-7-6"
     width="28.152437"
     height="4.1707315"
     x="100.5"
     y="313.32925"
     ry="2.0853658" />
  <rect
     style="fill:#000000;stroke:#020000;stroke-opacity:1"
     id="rect3951-6-45"
     width="28.152437"
     height="4.1707315"
     x="140.5"
     y="313.32925"
     ry="2.0853658" />
</svg>
